<mxfile host="Electron" agent="Mozilla/5.0 (X11; Linux x86_64) AppleWebKit/537.36 (KHTML, like Gecko) draw.io/26.0.9 Chrome/128.0.6613.186 Electron/32.3.0 Safari/537.36" version="26.0.9">
  <diagram name="1" id="AS0sLA-gUJZffBNNmKCp">
    <mxGraphModel dx="988" dy="586" grid="1" gridSize="10" guides="1" tooltips="1" connect="1" arrows="1" fold="1" page="1" pageScale="1" pageWidth="460" pageHeight="240" math="0" shadow="0">
      <root>
        <mxCell id="YqY_Bc5etBFNPCDuBgaJ-0" />
        <mxCell id="YqY_Bc5etBFNPCDuBgaJ-1" parent="YqY_Bc5etBFNPCDuBgaJ-0" />
        <mxCell id="K2cYIfPt5Gem7JRtnf8G-24" style="edgeStyle=orthogonalEdgeStyle;rounded=0;orthogonalLoop=1;jettySize=auto;html=1;exitX=0.5;exitY=0;exitDx=0;exitDy=0;entryX=0.5;entryY=0;entryDx=0;entryDy=0;fillColor=#dae8fc;strokeColor=#6c8ebf;" edge="1" parent="YqY_Bc5etBFNPCDuBgaJ-1" source="UF_0MwWMYEYdy6iJfK7G-52" target="K2cYIfPt5Gem7JRtnf8G-22">
          <mxGeometry relative="1" as="geometry">
            <Array as="points">
              <mxPoint x="60" y="40" />
              <mxPoint x="420" y="40" />
              <mxPoint x="420" y="120" />
              <mxPoint x="380" y="120" />
            </Array>
          </mxGeometry>
        </mxCell>
        <mxCell id="UF_0MwWMYEYdy6iJfK7G-52" value="S" style="text;html=1;align=center;verticalAlign=middle;whiteSpace=wrap;rounded=0;fillColor=#dae8fc;strokeColor=#6c8ebf;fontSize=14;fontColor=#333333;" parent="YqY_Bc5etBFNPCDuBgaJ-1" vertex="1">
          <mxGeometry x="40" y="60" width="40" height="40" as="geometry" />
        </mxCell>
        <mxCell id="UF_0MwWMYEYdy6iJfK7G-53" value="A" style="text;html=1;align=center;verticalAlign=middle;whiteSpace=wrap;rounded=0;fillColor=#dae8fc;strokeColor=#6c8ebf;fontSize=14;fontColor=#333333;" parent="YqY_Bc5etBFNPCDuBgaJ-1" vertex="1">
          <mxGeometry x="80" y="60" width="40" height="40" as="geometry" />
        </mxCell>
        <mxCell id="UF_0MwWMYEYdy6iJfK7G-54" value="D" style="text;html=1;align=center;verticalAlign=middle;whiteSpace=wrap;rounded=0;fillColor=#dae8fc;strokeColor=#6c8ebf;fontSize=14;fontColor=#333333;" parent="YqY_Bc5etBFNPCDuBgaJ-1" vertex="1">
          <mxGeometry x="120" y="60" width="40" height="40" as="geometry" />
        </mxCell>
        <mxCell id="UF_0MwWMYEYdy6iJfK7G-55" value="B" style="text;html=1;align=center;verticalAlign=middle;whiteSpace=wrap;rounded=0;fillColor=#f5f5f5;strokeColor=#666666;fontSize=14;fontColor=#333333;" parent="YqY_Bc5etBFNPCDuBgaJ-1" vertex="1">
          <mxGeometry x="160" y="60" width="40" height="40" as="geometry" />
        </mxCell>
        <mxCell id="K2cYIfPt5Gem7JRtnf8G-0" value="U" style="text;html=1;align=center;verticalAlign=middle;whiteSpace=wrap;rounded=0;fillColor=#f5f5f5;strokeColor=#666666;fontSize=14;fontColor=#333333;" vertex="1" parent="YqY_Bc5etBFNPCDuBgaJ-1">
          <mxGeometry x="200" y="60" width="40" height="40" as="geometry" />
        </mxCell>
        <mxCell id="K2cYIfPt5Gem7JRtnf8G-1" value="T" style="text;html=1;align=center;verticalAlign=middle;whiteSpace=wrap;rounded=0;fillColor=#f5f5f5;strokeColor=#666666;fontSize=14;fontColor=#333333;" vertex="1" parent="YqY_Bc5etBFNPCDuBgaJ-1">
          <mxGeometry x="240" y="60" width="40" height="40" as="geometry" />
        </mxCell>
        <mxCell id="K2cYIfPt5Gem7JRtnf8G-2" value="S" style="text;html=1;align=center;verticalAlign=middle;whiteSpace=wrap;rounded=0;fillColor=#f5f5f5;strokeColor=#666666;fontSize=14;fontColor=#333333;" vertex="1" parent="YqY_Bc5etBFNPCDuBgaJ-1">
          <mxGeometry x="280" y="60" width="40" height="40" as="geometry" />
        </mxCell>
        <mxCell id="K2cYIfPt5Gem7JRtnf8G-3" value="A" style="text;html=1;align=center;verticalAlign=middle;whiteSpace=wrap;rounded=0;fillColor=#f5f5f5;strokeColor=#666666;fontSize=14;fontColor=#333333;" vertex="1" parent="YqY_Bc5etBFNPCDuBgaJ-1">
          <mxGeometry x="320" y="60" width="40" height="40" as="geometry" />
        </mxCell>
        <mxCell id="K2cYIfPt5Gem7JRtnf8G-4" value="D" style="text;html=1;align=center;verticalAlign=middle;whiteSpace=wrap;rounded=0;fillColor=#f5f5f5;strokeColor=#666666;fontSize=14;fontColor=#333333;" vertex="1" parent="YqY_Bc5etBFNPCDuBgaJ-1">
          <mxGeometry x="360" y="60" width="40" height="40" as="geometry" />
        </mxCell>
        <mxCell id="K2cYIfPt5Gem7JRtnf8G-6" value="0" style="text;html=1;align=center;verticalAlign=middle;whiteSpace=wrap;rounded=0;fontSize=10;" vertex="1" parent="YqY_Bc5etBFNPCDuBgaJ-1">
          <mxGeometry x="40" y="40" width="40" height="20" as="geometry" />
        </mxCell>
        <mxCell id="K2cYIfPt5Gem7JRtnf8G-7" value="1" style="text;html=1;align=center;verticalAlign=middle;whiteSpace=wrap;rounded=0;fontSize=10;" vertex="1" parent="YqY_Bc5etBFNPCDuBgaJ-1">
          <mxGeometry x="80" y="40" width="40" height="20" as="geometry" />
        </mxCell>
        <mxCell id="K2cYIfPt5Gem7JRtnf8G-8" value="2" style="text;html=1;align=center;verticalAlign=middle;whiteSpace=wrap;rounded=0;fontSize=10;" vertex="1" parent="YqY_Bc5etBFNPCDuBgaJ-1">
          <mxGeometry x="120" y="40" width="40" height="20" as="geometry" />
        </mxCell>
        <mxCell id="K2cYIfPt5Gem7JRtnf8G-9" value="3" style="text;html=1;align=center;verticalAlign=middle;whiteSpace=wrap;rounded=0;fontSize=10;" vertex="1" parent="YqY_Bc5etBFNPCDuBgaJ-1">
          <mxGeometry x="160" y="40" width="40" height="20" as="geometry" />
        </mxCell>
        <mxCell id="K2cYIfPt5Gem7JRtnf8G-10" value="4" style="text;html=1;align=center;verticalAlign=middle;whiteSpace=wrap;rounded=0;fontSize=10;" vertex="1" parent="YqY_Bc5etBFNPCDuBgaJ-1">
          <mxGeometry x="200" y="40" width="40" height="20" as="geometry" />
        </mxCell>
        <mxCell id="K2cYIfPt5Gem7JRtnf8G-11" value="5" style="text;html=1;align=center;verticalAlign=middle;whiteSpace=wrap;rounded=0;fontSize=10;" vertex="1" parent="YqY_Bc5etBFNPCDuBgaJ-1">
          <mxGeometry x="240" y="40" width="40" height="20" as="geometry" />
        </mxCell>
        <mxCell id="K2cYIfPt5Gem7JRtnf8G-12" value="6" style="text;html=1;align=center;verticalAlign=middle;whiteSpace=wrap;rounded=0;fontSize=10;" vertex="1" parent="YqY_Bc5etBFNPCDuBgaJ-1">
          <mxGeometry x="280" y="40" width="40" height="20" as="geometry" />
        </mxCell>
        <mxCell id="K2cYIfPt5Gem7JRtnf8G-13" value="7" style="text;html=1;align=center;verticalAlign=middle;whiteSpace=wrap;rounded=0;fontSize=10;" vertex="1" parent="YqY_Bc5etBFNPCDuBgaJ-1">
          <mxGeometry x="320" y="40" width="40" height="20" as="geometry" />
        </mxCell>
        <mxCell id="K2cYIfPt5Gem7JRtnf8G-14" value="8" style="text;html=1;align=center;verticalAlign=middle;whiteSpace=wrap;rounded=0;fontSize=10;" vertex="1" parent="YqY_Bc5etBFNPCDuBgaJ-1">
          <mxGeometry x="360" y="40" width="40" height="20" as="geometry" />
        </mxCell>
        <mxCell id="K2cYIfPt5Gem7JRtnf8G-19" style="edgeStyle=orthogonalEdgeStyle;rounded=0;orthogonalLoop=1;jettySize=auto;html=1;exitX=0.5;exitY=0;exitDx=0;exitDy=0;entryX=0.5;entryY=1;entryDx=0;entryDy=0;fillColor=#dae8fc;strokeColor=#6c8ebf;" edge="1" parent="YqY_Bc5etBFNPCDuBgaJ-1" source="K2cYIfPt5Gem7JRtnf8G-15" target="UF_0MwWMYEYdy6iJfK7G-52">
          <mxGeometry relative="1" as="geometry" />
        </mxCell>
        <mxCell id="K2cYIfPt5Gem7JRtnf8G-15" value="S" style="text;html=1;align=center;verticalAlign=middle;whiteSpace=wrap;rounded=0;fillColor=#dae8fc;strokeColor=#6c8ebf;fontSize=14;fontColor=#333333;" vertex="1" parent="YqY_Bc5etBFNPCDuBgaJ-1">
          <mxGeometry x="40" y="140" width="40" height="40" as="geometry" />
        </mxCell>
        <mxCell id="K2cYIfPt5Gem7JRtnf8G-20" style="edgeStyle=orthogonalEdgeStyle;rounded=0;orthogonalLoop=1;jettySize=auto;html=1;exitX=0.5;exitY=0;exitDx=0;exitDy=0;entryX=0.5;entryY=1;entryDx=0;entryDy=0;fillColor=#dae8fc;strokeColor=#6c8ebf;" edge="1" parent="YqY_Bc5etBFNPCDuBgaJ-1" source="K2cYIfPt5Gem7JRtnf8G-16" target="UF_0MwWMYEYdy6iJfK7G-53">
          <mxGeometry relative="1" as="geometry" />
        </mxCell>
        <mxCell id="K2cYIfPt5Gem7JRtnf8G-16" value="A" style="text;html=1;align=center;verticalAlign=middle;whiteSpace=wrap;rounded=0;fillColor=#dae8fc;strokeColor=#6c8ebf;fontSize=14;fontColor=#333333;" vertex="1" parent="YqY_Bc5etBFNPCDuBgaJ-1">
          <mxGeometry x="80" y="140" width="40" height="40" as="geometry" />
        </mxCell>
        <mxCell id="K2cYIfPt5Gem7JRtnf8G-21" style="edgeStyle=orthogonalEdgeStyle;rounded=0;orthogonalLoop=1;jettySize=auto;html=1;exitX=0.5;exitY=0;exitDx=0;exitDy=0;entryX=0.5;entryY=1;entryDx=0;entryDy=0;fillColor=#dae8fc;strokeColor=#6c8ebf;" edge="1" parent="YqY_Bc5etBFNPCDuBgaJ-1" source="K2cYIfPt5Gem7JRtnf8G-17" target="UF_0MwWMYEYdy6iJfK7G-54">
          <mxGeometry relative="1" as="geometry" />
        </mxCell>
        <mxCell id="K2cYIfPt5Gem7JRtnf8G-17" value="D" style="text;html=1;align=center;verticalAlign=middle;whiteSpace=wrap;rounded=0;fillColor=#dae8fc;strokeColor=#6c8ebf;fontSize=14;fontColor=#333333;" vertex="1" parent="YqY_Bc5etBFNPCDuBgaJ-1">
          <mxGeometry x="120" y="140" width="40" height="40" as="geometry" />
        </mxCell>
        <mxCell id="K2cYIfPt5Gem7JRtnf8G-18" value="needle" style="text;html=1;align=center;verticalAlign=middle;whiteSpace=wrap;rounded=0;fontSize=10;" vertex="1" parent="YqY_Bc5etBFNPCDuBgaJ-1">
          <mxGeometry x="40" y="180" width="120" height="20" as="geometry" />
        </mxCell>
        <mxCell id="K2cYIfPt5Gem7JRtnf8G-22" value="0" style="text;html=1;align=center;verticalAlign=middle;whiteSpace=wrap;rounded=0;fillColor=#d5e8d4;strokeColor=#82b366;fontSize=14;fontColor=#333333;" vertex="1" parent="YqY_Bc5etBFNPCDuBgaJ-1">
          <mxGeometry x="360" y="140" width="40" height="40" as="geometry" />
        </mxCell>
        <mxCell id="K2cYIfPt5Gem7JRtnf8G-23" value="return" style="text;html=1;align=center;verticalAlign=middle;whiteSpace=wrap;rounded=0;fontSize=10;" vertex="1" parent="YqY_Bc5etBFNPCDuBgaJ-1">
          <mxGeometry x="360" y="180" width="40" height="20" as="geometry" />
        </mxCell>
      </root>
    </mxGraphModel>
  </diagram>
</mxfile>
